<svg xmlns="http://www.w3.org/2000/svg" width="600" height="600" viewBox="0 0 600 600" fill="none">
  <rect width="600" height="600" rx="24" fill="#ffffff"/>
  <rect x="36" y="36" width="528" height="528" rx="16" fill="#f6f3ee"/>

  <rect x="74" y="74" width="132" height="132" rx="10" fill="#1c1c19"/>
  <rect x="94" y="94" width="92" height="92" rx="8" fill="#ffffff"/>
  <rect x="112" y="112" width="56" height="56" rx="6" fill="#1c1c19"/>

  <rect x="394" y="74" width="132" height="132" rx="10" fill="#1c1c19"/>
  <rect x="414" y="94" width="92" height="92" rx="8" fill="#ffffff"/>
  <rect x="432" y="112" width="56" height="56" rx="6" fill="#1c1c19"/>

  <rect x="74" y="394" width="132" height="132" rx="10" fill="#1c1c19"/>
  <rect x="94" y="414" width="92" height="92" rx="8" fill="#ffffff"/>
  <rect x="112" y="432" width="56" height="56" rx="6" fill="#1c1c19"/>

  <rect x="254" y="78" width="18" height="18" fill="#1c1c19"/>
  <rect x="288" y="78" width="18" height="18" fill="#1c1c19"/>
  <rect x="322" y="78" width="18" height="18" fill="#1c1c19"/>
  <rect x="254" y="112" width="18" height="18" fill="#1c1c19"/>
  <rect x="322" y="112" width="18" height="18" fill="#1c1c19"/>
  <rect x="254" y="146" width="18" height="18" fill="#1c1c19"/>
  <rect x="288" y="146" width="18" height="18" fill="#1c1c19"/>
  <rect x="322" y="146" width="18" height="18" fill="#1c1c19"/>

  <rect x="254" y="220" width="18" height="18" fill="#1c1c19"/>
  <rect x="288" y="220" width="18" height="18" fill="#1c1c19"/>
  <rect x="322" y="220" width="18" height="18" fill="#1c1c19"/>
  <rect x="356" y="220" width="18" height="18" fill="#1c1c19"/>
  <rect x="390" y="220" width="18" height="18" fill="#1c1c19"/>
  <rect x="424" y="220" width="18" height="18" fill="#1c1c19"/>
  <rect x="458" y="220" width="18" height="18" fill="#1c1c19"/>

  <rect x="254" y="254" width="18" height="18" fill="#1c1c19"/>
  <rect x="322" y="254" width="18" height="18" fill="#1c1c19"/>
  <rect x="390" y="254" width="18" height="18" fill="#1c1c19"/>
  <rect x="424" y="254" width="18" height="18" fill="#1c1c19"/>
  <rect x="458" y="254" width="18" height="18" fill="#1c1c19"/>

  <rect x="220" y="288" width="18" height="18" fill="#1c1c19"/>
  <rect x="254" y="288" width="18" height="18" fill="#1c1c19"/>
  <rect x="288" y="288" width="18" height="18" fill="#1c1c19"/>
  <rect x="356" y="288" width="18" height="18" fill="#1c1c19"/>
  <rect x="390" y="288" width="18" height="18" fill="#1c1c19"/>
  <rect x="458" y="288" width="18" height="18" fill="#1c1c19"/>

  <rect x="220" y="322" width="18" height="18" fill="#1c1c19"/>
  <rect x="288" y="322" width="18" height="18" fill="#1c1c19"/>
  <rect x="322" y="322" width="18" height="18" fill="#1c1c19"/>
  <rect x="356" y="322" width="18" height="18" fill="#1c1c19"/>
  <rect x="424" y="322" width="18" height="18" fill="#1c1c19"/>
  <rect x="458" y="322" width="18" height="18" fill="#1c1c19"/>

  <rect x="220" y="356" width="18" height="18" fill="#1c1c19"/>
  <rect x="254" y="356" width="18" height="18" fill="#1c1c19"/>
  <rect x="322" y="356" width="18" height="18" fill="#1c1c19"/>
  <rect x="390" y="356" width="18" height="18" fill="#1c1c19"/>
  <rect x="458" y="356" width="18" height="18" fill="#1c1c19"/>

  <rect x="220" y="390" width="18" height="18" fill="#1c1c19"/>
  <rect x="254" y="390" width="18" height="18" fill="#1c1c19"/>
  <rect x="288" y="390" width="18" height="18" fill="#1c1c19"/>
  <rect x="356" y="390" width="18" height="18" fill="#1c1c19"/>
  <rect x="390" y="390" width="18" height="18" fill="#1c1c19"/>
  <rect x="424" y="390" width="18" height="18" fill="#1c1c19"/>
  <rect x="458" y="390" width="18" height="18" fill="#1c1c19"/>

  <rect x="220" y="424" width="18" height="18" fill="#1c1c19"/>
  <rect x="288" y="424" width="18" height="18" fill="#1c1c19"/>
  <rect x="322" y="424" width="18" height="18" fill="#1c1c19"/>
  <rect x="356" y="424" width="18" height="18" fill="#1c1c19"/>
  <rect x="424" y="424" width="18" height="18" fill="#1c1c19"/>
  <rect x="458" y="424" width="18" height="18" fill="#1c1c19"/>

  <rect x="220" y="458" width="18" height="18" fill="#1c1c19"/>
  <rect x="254" y="458" width="18" height="18" fill="#1c1c19"/>
  <rect x="322" y="458" width="18" height="18" fill="#1c1c19"/>
  <rect x="390" y="458" width="18" height="18" fill="#1c1c19"/>
  <rect x="458" y="458" width="18" height="18" fill="#1c1c19"/>

  <text x="300" y="548" text-anchor="middle" font-family="Manrope, Arial, sans-serif" font-size="24" font-weight="700" fill="#6e3327">PIX QR CODE (MOCK)</text>
</svg>
